<svg xmlns="http://www.w3.org/2000/svg" viewBox="0 0 202 203.5"><defs><style>.cls-1{fill:#f7941d;stroke:#f7941d;stroke-miterlimit:10;}.cls-2{fill:#fff;}.cls-3{fill:#231f20;}</style></defs><title>ddd</title><g id="bg"><rect class="cls-1" x="0.5" y="0.5" width="201" height="202.5"/></g><g id="s"><path class="cls-2" d="M139.25,73.75c-4.73-1.82-7.27-5.92-10.41-10.81s-3.42-7.48-7-10.62a24,24,0,0,0-5.64-3.46,36.21,36.21,0,0,0-10.32-3,34.08,34.08,0,0,0-14.4.42c-3.73,1-12.19,3.31-16.18,11.5a20.89,20.89,0,0,0,2.5,21.75c2.88,3.46,6.59,5,11.1,6.93a48.69,48.69,0,0,0,11.9,3.32c21.62,3.24,35.84,5.37,48,13A40,40,0,0,1,161.5,114.5,39.31,39.31,0,0,1,168,136a43.33,43.33,0,0,1-9.75,27.5,45.07,45.07,0,0,1-13.32,10.58c-9,5.11-16.89,6.43-24.71,7.66a103.31,103.31,0,0,1-33-.24c-8.36-1.4-14-2.35-20.75-5.75-14.23-7.22-28.2-23.05-25.75-37.25.19-1.1,1.61-8.7,7.25-11.25s12.44,1.5,15.75,3.5c9.64,5.83,8.51,10.88,16.25,17,12.19,9.63,28.38,7.56,35.26,6.68s13-1.76,16.49-6.68c3.21-4.58,3.41-11.62.75-16.75-4.41-8.49-14.86-8.64-44-15.75C70.65,110.89,61.63,108.64,57,105,44.72,95.34,37.37,77.46,40,60.25a45.83,45.83,0,0,1,7.77-19.41C58.74,25.45,76.46,22.09,87.5,20c14.32-2.72,25.51-.93,32.5.25,8.82,1.49,16.85,2.94,25,9A43.74,43.74,0,0,1,156.75,42.5a34.34,34.34,0,0,1,5,16c.15,3.73.32,7.88-2.46,11.13-2.35,2.75-5.61,3.49-8.79,4.2C147.72,74.46,143.55,75.4,139.25,73.75Z" transform="translate(0.5 0.5)"/></g><g id="f"><path class="cls-3" d="M74.53,59.44a27.53,27.53,0,0,0-.31,7A18.8,18.8,0,0,0,76,72.92,16.78,16.78,0,0,0,79.79,78a28.76,28.76,0,0,0,2.54,2c.46.33.92.65,1.4,1l1.42.94a30.73,30.73,0,0,0,12.08,4.48,52.58,52.58,0,0,0,6.74.37c2.48.07,5,.27,7.45.58s4.91.78,7.32,1.31,4.76,1.16,7.08,1.83,4.57,1.32,6.94,2.09a71,71,0,0,1,6.93,2.65,51.55,51.55,0,0,1,12.66,7.8,33.35,33.35,0,0,1,9.15,11.39,43.88,43.88,0,0,0-5.24-4.82,54.62,54.62,0,0,0-5.86-3.83,63.54,63.54,0,0,0-12.64-5.51c-2.19-.7-4.42-1.31-6.67-1.87l-6.9-1.61a132.78,132.78,0,0,0-13.65-2.64c-2.27-.31-4.54-.5-6.83-.62a51.87,51.87,0,0,1-7.55-.72A32.89,32.89,0,0,1,82,86.37c-.52-.4-1-.81-1.45-1.21s-.94-.82-1.4-1.25a26.79,26.79,0,0,1-2.69-2.83,18.7,18.7,0,0,1-4.16-14.63A21.67,21.67,0,0,1,74.53,59.44Z" transform="translate(0.5 0.5)"/><path class="cls-3" d="M63.36,108.35a35,35,0,0,1-11.2-6.69A36.86,36.86,0,0,1,44,91.2a55.17,55.17,0,0,1-5-12.3,53.84,53.84,0,0,1-1.36-6.59,46.07,46.07,0,0,1-.38-6.75A44.28,44.28,0,0,1,45.7,39.94,55,55,0,0,1,55.05,30c1.76-1.43,3.6-2.75,5.47-4s3.75-2.34,5.77-3.45a59.09,59.09,0,0,1,12.64-5.06A64.31,64.31,0,0,1,92.3,15.46a93.64,93.64,0,0,1,13.32.32c2.18.2,4.36.42,6.51.67s4.43.56,6.59.95a95.42,95.42,0,0,1,12.84,3.35,58.08,58.08,0,0,1,6.21,2.46c1,.47,2,1,3,1.51s1.95,1.12,2.89,1.75a30.61,30.61,0,0,1,5.23,4.31,51.37,51.37,0,0,1,4.27,5.09,54.62,54.62,0,0,1,3.52,5.55,37.84,37.84,0,0,1,2.55,6A45.34,45.34,0,0,0,155.82,42a53.91,53.91,0,0,0-4.12-4.9,48.3,48.3,0,0,0-4.58-4.37c-.42-.32-.82-.67-1.24-1l-1.26-.87a30.18,30.18,0,0,0-2.63-1.6,54.73,54.73,0,0,0-11.69-4.39,97.76,97.76,0,0,0-12.4-2.44c-2.1-.29-4.14-.53-6.26-.66s-4.28-.3-6.41-.41a105.59,105.59,0,0,0-12.58,0,57.49,57.49,0,0,0-23.59,6.38C61.71,31.68,55,36.66,50,43.13A41.61,41.61,0,0,0,41.6,65.71a47.66,47.66,0,0,0,.89,12.36A57.77,57.77,0,0,0,46.4,90a36.58,36.58,0,0,0,17,18.31Z" transform="translate(0.5 0.5)"/><path class="cls-3" d="M55.76,127a9.15,9.15,0,0,0-4.49.15,6.35,6.35,0,0,0-3.22,2.39c-.45.56-.84,1.13-1.28,1.8s-.83,1.25-1.19,1.89a18.47,18.47,0,0,0-1.7,3.83,14.87,14.87,0,0,0-.34,7.81,24.94,24.94,0,0,0,1.33,3.86c.29.66.61,1.34.93,2s.61,1.3,1,1.94a36.65,36.65,0,0,0,4.89,7l1.49,1.71c.51.57,1,1.09,1.47,1.64,1,1.06,2,2.14,3.1,3.18A125.17,125.17,0,0,0,71.82,178,29.94,29.94,0,0,1,67,177.3a35,35,0,0,1-4.67-1.55,40.92,40.92,0,0,1-8.57-4.88,42.51,42.51,0,0,1-3.82-3.17c-.6-.57-1.24-1.18-1.78-1.77s-1.09-1.17-1.64-1.79a35.92,35.92,0,0,1-5.68-8.51c-.36-.76-.73-1.61-1-2.33s-.58-1.51-.86-2.31a24.36,24.36,0,0,1-1.28-5.16,18.52,18.52,0,0,1,1.83-10.62,20.78,20.78,0,0,1,3-4.31,29,29,0,0,1,3.63-3.45,10.39,10.39,0,0,1,2.31-1.38,7.15,7.15,0,0,1,2.65-.5A8.38,8.38,0,0,1,55.76,127Z" transform="translate(0.5 0.5)"/></g></svg>